<svg xmlns="http://www.w3.org/2000/svg" width="50" height="51" viewBox="0 0 50 51">
    <g fill="none" fill-rule="evenodd">
        <path fill="#003D97" d="M50 9.75L38.5 0l-3.25 3.75 11.5 9.75L50 9.75zM14.75 4L11.5.25 0 9.75l3.25 3.75L14.75 4zm11.5 11.5H22.5v15l11.75 7.25 2-3-10-6V15.5zM25 5.5C12.5 5.5 2.5 15.5 2.5 28s10 22.5 22.5 22.5 22.5-10 22.5-22.5S37.5 5.5 25 5.5zm0 40c-9.75 0-17.5-7.75-17.5-17.5S15.25 10.5 25 10.5 42.5 18.25 42.5 28 34.75 45.5 25 45.5z"/>
        <path fill="#0058C5" d="M7.75 25c-.164.973-.25 1.976-.25 3 0 3.517 1.008 6.774 2.756 9.5H4.572C3.24 34.62 2.5 31.404 2.5 28c0-1.018.066-2.02.195-3zm18.5 0v3.75l10 6-1.833 2.75h-.572l-11.345-7V25h3.75zm21.055 0c.129.98.195 1.982.195 3 0 3.403-.741 6.62-2.072 9.5h-5.684c1.748-2.726 2.756-5.983 2.756-9.5 0-1.024-.086-2.027-.25-3z"/>
        <path fill="#007CDC" d="M41.363 12.5c3.167 3.345 5.31 7.672 5.942 12.5H42.25c-.923-5.467-4.334-10.028-9.051-12.5zm-24.562-.001C12.084 14.972 8.673 19.533 7.75 25H2.695c.633-4.828 2.775-9.155 5.942-12.5zM26.25 15.5V25H22.5v-9.5h3.75zm21.366-3l-.866 1-1.18-1h2.046zm-43.156 0l-1.21 1-.868-1H4.46z"/>
        <path fill="#00A6F3" d="M11.5.25L14.75 4 4.46 12.5H2.383L0 9.75 11.5.25zM25 5.5c6.471 0 12.273 2.68 16.363 7h-8.162c-2.439-1.279-5.227-2-8.201-2s-5.762.721-8.2 2H8.636c4.09-4.32 9.892-7 16.363-7zM38.5 0L50 9.75l-2.384 2.75H45.57L35.25 3.75 38.5 0z"/>
    </g>
</svg>
