<svg xmlns="http://www.w3.org/2000/svg" width="32" height="40" viewBox="0 0 32 40">
    <path fill="#158249" fill-rule="evenodd" d="M28 0c2.2 0 4 1.8 4 4v32c0 2.2-1.8 4-4 4H4c-2.2 0-4-1.8-4-4V12L12 0zM16 10c-4.97 0-9 4.03-9 9 0 4.439 3.213 8.127 7.44 8.865v2.04h.26c1.795 0 4.5-1.449 6.374-3.136 1.873-1.687 3.636-4.593 3.636-7.769 0-4.97-3.74-9-8.71-9zm.972 10.785c.356-.143 1.335 1.143 1.464 1.565.129.423-.109.87-.531 1-.423.129-.87-.11-1-.532-.128-.422-.29-1.891.067-2.033zm-1.43-.035l.068.013c.355.145.166 1.75-.034 2.143-.201.394-.683.55-1.076.35-.394-.2-.55-.682-.35-1.076.2-.394 1.105-1.563 1.46-1.417zm-3.21-1.143c.43-.107 1.905-.191 2.028.172.123.364-1.212 1.274-1.64 1.38-.43.108-.863-.153-.97-.582-.107-.429.154-.863.582-.97zm-.537-2.462c.208-.39.692-.538 1.082-.33.39.207 1.544 1.131 1.392 1.484-.152.353-1.753.136-2.143-.072-.39-.207-.538-.692-.33-1.082zm5.248-2.182c.207-.39.692-.538 1.082-.33.39.207.538.691.33 1.082-.207.39-1.131 1.543-1.484 1.391-.353-.152-.135-1.752.072-2.143zm-2.959-.3c.397-.194.876-.03 1.07.368.193.397.583 1.823.253 2.019-.33.196-1.498-.92-1.691-1.318-.194-.397-.03-.876.368-1.07z"/>
</svg>
