<svg xmlns="http://www.w3.org/2000/svg" width="60" height="60" viewBox="0 0 60 60">
    <g fill="none" fill-rule="evenodd">
        <path fill="#34C482" d="M30 18.75c3.105 0 5.906 1.258 7.95 3.3 2.042 2.044 3.3 4.845 3.3 7.95 0 1.035.84 1.875 1.875 1.875C44.16 31.875 45 31.035 45 30c.002-4.133-1.686-7.892-4.397-10.601C37.893 16.686 34.133 15 30 15c-1.035 0-1.875.84-1.875 1.875 0 1.035.84 1.875 1.875 1.875M30 41.25c-3.103 0-5.906-1.258-7.95-3.3-2.042-2.044-3.298-4.845-3.3-7.95 0-1.035-.84-1.875-1.875-1.875-1.035 0-1.875.84-1.875 1.875 0 4.133 1.686 7.892 4.399 10.601C22.109 43.314 25.867 45 30 45c1.035 0 1.875-.84 1.875-1.875 0-1.035-.84-1.875-1.875-1.875"/>
        <path fill="#34C482" d="M30 35.625V33.75c-2.063-.004-3.746-1.688-3.75-3.75.004-2.063 1.688-3.746 3.75-3.75 2.063.004 3.746 1.688 3.75 3.75-.004 2.063-1.688 3.746-3.75 3.75v3.75c4.142-.004 7.496-3.36 7.5-7.5-.004-4.14-3.358-7.496-7.5-7.5-4.14.004-7.496 3.36-7.5 7.5.004 4.14 3.36 7.496 7.5 7.5v-1.875"/>
        <path fill="#185C37" d="M49.824 33.75c-.838 0-1.573.555-1.801 1.361-.443 1.556-1.084 3.027-1.894 4.397-.338.57-.347 1.286-.025 1.866.794 1.428 1.195 3.018 1.195 4.605-.002 1.788-.505 3.559-1.523 5.1l-4.408-4.408c-.592-.593-1.511-.718-2.242-.31-1.375.77-2.87 1.363-4.448 1.772-.643.165-1.153.662-1.335 1.301-.956 3.34-3.68 5.903-7.093 6.606v-6.216c0-.838-.557-1.575-1.363-1.803-1.555-.441-3.024-1.082-4.393-1.892-.572-.34-1.288-.349-1.868-.026-1.428.794-3.019 1.196-4.605 1.196-1.787-.004-3.559-.505-5.1-1.523l4.408-4.408c.593-.592.718-1.511.31-2.242-.77-1.375-1.363-2.87-1.772-4.448-.165-.643-.662-1.153-1.301-1.335-3.34-.956-5.903-3.68-6.606-7.093h6.216c.838 0 1.575-.557 1.803-1.363.443-1.555 1.082-3.026 1.892-4.395.34-.57.349-1.286.027-1.866-.796-1.428-1.197-3.019-1.197-4.605.002-1.789.505-3.559 1.523-5.102l4.408 4.409c.592.592 1.511.72 2.242.31 1.377-.77 2.87-1.364 4.448-1.771.643-.165 1.153-.662 1.335-1.301.958-3.34 3.68-5.903 7.093-6.606v6.216c0 .838.557 1.573 1.363 1.803 1.554.441 3.025 1.082 4.395 1.892.57.338 1.286.347 1.868.025 1.427-.795 3.015-1.195 4.603-1.195 1.787.002 3.559.505 5.102 1.523l-4.409 4.408c-.592.592-.72 1.511-.31 2.242.77 1.375 1.362 2.87 1.771 4.448.167.643.662 1.153 1.301 1.335 3.34.956 5.903 3.68 6.606 7.093h-6.216zm1.626-10.331c-.323-1.056-.724-2.078-1.193-3.07l4.934-4.933c.348-.35.549-.832.549-1.325 0-.495-.2-.977-.55-1.328-2.542-2.544-5.887-3.814-9.211-3.812-1.877 0-3.745.426-5.486 1.22-.959-.51-1.958-.944-2.993-1.313V1.875c0-.493-.2-.977-.55-1.326C36.603.201 36.119 0 35.626 0c-5.633.002-10.348 3.585-12.204 8.55-1.058.322-2.08.724-3.07 1.194L15.416 4.81c-.733-.733-1.92-.733-2.651 0-2.546 2.543-3.816 5.888-3.814 9.212 0 1.877.426 3.745 1.223 5.486-.51.959-.947 1.958-1.316 2.993H1.875c-.493 0-.977.2-1.326.55-.348.348-.549.832-.549 1.325.004 5.633 3.585 10.348 8.552 12.204.322 1.058.722 2.08 1.192 3.07L4.81 44.584c-.348.348-.549.832-.549 1.325 0 .495.2.977.55 1.326 2.544 2.546 5.887 3.816 9.211 3.814 1.877 0 3.745-.426 5.486-1.223.959.51 1.958.947 2.993 1.316v6.983c0 .493.2.977.55 1.326.348.348.832.549 1.325.549 5.634-.004 10.35-3.585 12.206-8.55 1.056-.323 2.078-.724 3.07-1.194l4.933 4.935c.35.348.832.549 1.327.549.493 0 .975-.2 1.326-.55 2.544-2.544 3.814-5.887 3.812-9.211 0-1.877-.426-3.745-1.22-5.486.51-.959.944-1.958 1.313-2.993h6.983c.493 0 .977-.2 1.326-.55.348-.348.549-.832.549-1.325-.002-5.634-3.585-10.348-8.55-12.206z"/>
    </g>
</svg>
