<svg xmlns="http://www.w3.org/2000/svg" width="93" height="104" viewBox="0 0 93 104">
    <g fill="none" fill-rule="evenodd">
        <path stroke="#FFF" stroke-width="4" d="M38.5 99.522c8.973 0 22.5-7.24 31.868-15.676C79.735 75.41 88.549 60.88 88.549 45 88.549 20.147 69.853 0 45 0 20.147 0 0 20.147 0 45c0 22.194 16.067 40.635 37.203 44.327v10.195H38.5z" transform="translate(2 2)"/>
        <path fill="#FFF" d="M42.035 35.25c1.65-.982-.298-8.11-1.266-10.096-.969-1.985-3.363-2.81-5.349-1.841-1.986.968-2.81 3.363-1.842 5.348.969 1.986 6.806 7.57 8.457 6.588zM36.344 41.495c.759-1.764-5.007-6.385-6.958-7.423-1.95-1.037-4.372-.296-5.41 1.654-1.037 1.95-.296 4.373 1.654 5.41s9.955 2.123 10.714.36zM36.8 48.897c-.617-1.82-7.994-1.395-10.138-.86-2.143.534-3.448 2.704-2.913 4.848.534 2.143 2.705 3.448 4.849 2.913 2.143-.534 8.818-5.083 8.202-6.901zM43.05 53.813c-1.777-.728-6.298 5.118-7.3 7.087-1.003 1.968-.22 4.377 1.748 5.38 1.968 1.002 4.377.22 5.38-1.749 1.003-1.968 1.949-9.99.172-10.718zM49.858 53.923c-1.785.71-.975 8.056-.33 10.168.647 2.113 2.883 3.302 4.995 2.656 2.113-.646 3.302-2.882 2.656-4.995-.646-2.112-5.537-8.54-7.321-7.83zM49.856 35.53c1.764.76 6.386-5.007 7.423-6.957 1.037-1.95.296-4.373-1.654-5.41s-4.373-.297-5.41 1.654c-1.037 1.95-2.123 9.955-.36 10.714z" transform="translate(2 2)"/>
    </g>
</svg>
