<svg xmlns="http://www.w3.org/2000/svg" width="184" height="206" viewBox="0 0 184 206">
    <g fill="none" fill-rule="evenodd">
        <path fill="#1DBB68" stroke="#FFF" stroke-width="6" d="M77 199.044c17.945 0 45-14.48 63.735-31.352C159.471 150.82 177.098 121.76 177.098 90c0-49.706-37.392-90-87.098-90C40.294 0 0 40.294 0 90c0 44.388 32.133 81.27 74.407 88.654v20.39H77z" transform="translate(3 3)"/>
        <path fill="#FFF" d="M84.07 70.498c3.301-1.962-.596-16.218-2.533-20.19-1.936-3.97-6.726-5.62-10.697-3.683-3.971 1.937-5.62 6.726-3.683 10.697 1.937 3.972 13.61 15.138 16.912 13.176zM72.688 82.99c1.518-3.528-10.015-12.77-13.916-14.845-3.9-2.074-8.745-.593-10.82 3.308-2.073 3.9-.592 8.745 3.309 10.82 3.9 2.073 19.909 4.246 21.427.717zM73.6 97.793c-1.234-3.638-15.989-2.79-20.276-1.72-4.287 1.068-6.896 5.41-5.827 9.697 1.07 4.287 5.411 6.896 9.698 5.827 4.287-1.069 17.637-10.166 16.404-13.804zM86.1 107.626c-3.555-1.456-12.595 10.236-14.6 14.173-2.007 3.937-.441 8.754 3.495 10.76 3.937 2.006 8.754.44 10.76-3.496 2.006-3.937 3.899-19.98.344-21.437zM99.715 107.845c-3.568 1.422-1.95 16.112-.657 20.337 1.291 4.226 5.764 6.604 9.989 5.312 4.225-1.292 6.603-5.764 5.311-9.99-1.291-4.225-11.075-17.08-14.643-15.659zM99.712 71.061c3.528 1.518 12.771-10.014 14.845-13.915 2.075-3.902.594-8.746-3.308-10.82-3.9-2.074-8.745-.593-10.819 3.308-2.074 3.901-4.246 19.91-.718 21.427zM110.236 97.566c-1.394 3.579 10.454 12.414 14.425 14.35 3.971 1.937 8.76.288 10.697-3.683 1.937-3.971.288-8.76-3.683-10.697-3.971-1.937-20.045-3.55-21.44.03z" transform="translate(3 3)"/>
    </g>
</svg>
