<svg xmlns="http://www.w3.org/2000/svg" width="169" height="51" viewBox="0 0 169 51">
    <g fill="none" fill-rule="evenodd">
        <g fill-rule="nonzero">
            <path fill="#003D97" d="M39.624 6.344V4.472l-6.24-.104-6.344-.104.624-.416c.347-.347.624-.763.832-1.248.277-.485.416-1.04.416-1.664L29.016 0h-2.288c-1.456 0-2.184.035-2.184.104-.07 0-.104.728-.104 2.184v2.08h-5.304l-5.304.104v1.872h25.792zM.728 36.192c.485 0 .936-.104 1.352-.312.347-.208.728-.52 1.144-.936l.52-.624h3.848v1.872h.728c.555 0 1.023-.104 1.404-.312.381-.208.71-.45.988-.728.208-.208.433-.52.676-.936.243-.416.416-.901.52-1.456.097-.515.148-4.707.155-12.575l.001-15.505H9.88c-1.456 0-2.201.087-2.236.26-.035.173-.572.26-1.612.26h-1.56v-.624H0v31.616h.728zm17.16 7.072V14.872l.728-.104c.416-.07 3.19-.104 8.32-.104l7.488-.104v28.704h.624c.416 0 .832-.104 1.248-.312.416-.208.763-.485 1.04-.832.347-.416.59-.815.728-1.196.139-.381.243-.85.312-1.404.139-.485.208-5.304.208-14.456V11.336h-4.16l-.104.624v.624l-1.144.104c-.763 0-1.144-.035-1.144-.104 0-.07.173-.19.52-.364.347-.173.624-.381.832-.624.208-.243.728-1.023 1.56-2.34.832-1.248 1.248-1.907 1.248-1.976 0-.07-.867-.07-2.6 0h-2.704l-.936 2.08c-.624 1.387-1.144 2.288-1.56 2.704-.416.416-.867.624-1.352.624h-.832L26 12.064c-.208-.416-.59-.901-1.144-1.456-.555-.624-1.11-1.11-1.664-1.456-.485-.277-1.092-.607-1.82-.988s-1.37-.676-1.924-.884c-.555-.208-.884-.312-.988-.312-.104 0-.19.035-.26.104-.07.07-.087.121-.052.156l.027.027.233.233c.139.07.243.139.312.208.347.208.728.52 1.144.936.416.416.728.867.936 1.352.277.485.503 1.005.676 1.56.173.555.243.901.208 1.04s-.676.208-1.924.208l-1.768-.104-.104-.624v-.728h-4.16v13.728c0 9.221.07 14.11.208 14.664.139.624.277 1.11.416 1.456.208.347.416.659.624.936.277.347.624.624 1.04.832.416.208.832.312 1.248.312h.624zM7.488 32.24H4.472V7.176l1.56.104h1.456v24.96zm14.82 4.524c.381.173.78.225 1.196.156h.52v-1.04l.104-.936h4.16l.104.936v1.04h.624c.347.07.728 0 1.144-.208.416-.208.797-.503 1.144-.884.347-.381.59-.78.728-1.196.139-.485.243-.919.312-1.3.064-.352.098-1.782.103-4.29l.001-4.914h-4.056v.416l-.104.416h-1.144v-3.536h5.72v-1.976h-5.72v-3.432h-1.976v3.432h-5.72v1.976h5.72v3.536h-.52c-.277 0-.433-.017-.468-.052-.035-.035-.087-.156-.156-.364v-.416l-2.08-.104h-1.976v4.472c0 3.05.035 4.784.104 5.2.07.416.208.815.416 1.196s.45.745.728 1.092c.347.347.71.607 1.092.78zm6.084-3.9h-4.368V27.04h4.368v5.824zm66.248 9.152V40.04h-8.477c-4.7-.007-7.248-.076-7.643-.208-.416-.07-.97-.277-1.664-.624-.624-.277-1.179-.624-1.664-1.04-.416-.347-.832-.797-1.248-1.352-.347-.485-.52-.763-.52-.832 0-.139.347-.693 1.04-1.664.624-.832 1.421-1.941 2.392-3.328.832-1.248 1.456-2.253 1.872-3.016.485-.832 1.04-1.803 1.664-2.912.555-1.179.884-1.768.988-1.768.104 0 .468.33 1.092.988.624.659 1.075 1.23 1.352 1.716.208.347.485.867.832 1.56.277.693.52 1.525.728 2.496.208.901.347 1.525.416 1.872l.104.416 2.184-.312c.347-.07.71-.139 1.092-.208.381-.07.676-.121.884-.156l.312-.052V31.2c0-.277-.104-.745-.312-1.404-.208-.659-.45-1.3-.728-1.924-.208-.555-.555-1.144-1.04-1.768-.416-.555-.901-1.144-1.456-1.768-.693-.555-1.352-1.04-1.976-1.456-.693-.416-1.317-.728-1.872-.936-.139-.07-.277-.121-.416-.156-.139-.035-.26-.07-.364-.104l-.156-.052.416-1.04c.208-.555.485-1.317.832-2.288.277-.901.52-1.803.728-2.704.07-.208.121-.45.156-.728.035-.277.07-.503.104-.676.035-.173.052-.295.052-.364l.104-.208h8.736v-1.976h-8.528l.104-1.248c.07-1.248.104-2.635.104-4.16.139-2.219.208-3.536.208-3.952v-.936h-4.784V5.72c-.07 2.843-.139 4.541-.208 5.096l-.104.728h-4.68l-4.576.104v1.976h9.048l-.104.728c-.07.416-.208 1.179-.416 2.288-.208 1.179-.485 2.323-.832 3.432-.277 1.179-.659 2.392-1.144 3.64-.485 1.317-.936 2.427-1.352 3.328-.416 1.04-.867 2.08-1.352 3.12-.485.97-.763 1.456-.832 1.456-.064 0-.098-1.903-.103-5.708l-.001-7.812h-8.216v2.08h3.744v7.072c0 4.784-.087 7.488-.26 8.112-.173.624-.364 1.144-.572 1.56-.208.347-.45.659-.728.936-.208.277-.52.537-.936.78-.416.243-.901.433-1.456.572l-.832.104v2.08h.416c.347 0 .797-.07 1.352-.208.485-.139 1.075-.312 1.768-.52.624-.139 1.213-.347 1.768-.624.555-.277 1.04-.59 1.456-.936l.624-.52.624.624c.416.416.797.763 1.144 1.04.416.277.936.52 1.56.728.693.277 1.387.485 2.08.624.658.197 3.469.301 8.432.311l.824.001 8.216.104zM73.32 6.864V4.888h-8.424v1.976h8.424zm-12.584 22.36c.555 0 1.04-.07 1.456-.208.347-.139.676-.33.988-.572.312-.243.572-.607.78-1.092l.416-.624V6.448l-1.456-.104c-.901-.07-2.288-.104-4.16-.104-1.872 0-2.808-.035-2.808-.104 0-.07-.728-.104-2.184-.104H51.48v22.88h.832c.555 0 1.04-.07 1.456-.208.485-.208.901-.485 1.248-.832l.52-.52h4.368v1.872h.832zm-.832-3.848h-3.952V8.32h3.952v17.056z" transform="translate(74 3)"/>
            <path fill="#0058C5" d="M4.471 21.82l.001 10.42h3.016l-.001-10.42h4.574c-.012 6.674-.061 10.31-.147 10.906l-.006.034c-.073.387-.18.74-.32 1.06H0v-12h4.471zm13.416 0v12h-4.128c-.02-2.167-.03-4.926-.03-8.275l-.001-.481-.001-3.245h4.16zm9.256 0l.001 3.14h1.144l.104-.416v-.416h4.056v4.914c-.006 2.508-.04 3.938-.104 4.29-.028.154-.062.316-.101.487H20.096l-.024-.123c-.067-.4-.101-2.023-.104-4.866v-4.806h1.976l2.08.104v.416l.04.114c.05.14.088.222.116.25.035.035.19.052.468.052h.52l-.001-3.14h1.976zm11.44 0v4.653c-.002 2.947-.012 5.396-.03 7.347h-4.13v-12h4.16zm35.048 0l.002 4.088c.005 3.805.04 5.708.103 5.708.07 0 .347-.485.832-1.456.485-1.04.936-2.08 1.352-3.12.416-.901.867-2.01 1.352-3.328.249-.64.47-1.27.665-1.892l4.747-.002c.102.033.205.075.308.126.555.208 1.179.52 1.872.936.624.416 1.283.901 1.976 1.456.555.624 1.04 1.213 1.456 1.768.485.624.832 1.213 1.04 1.768.277.624.52 1.265.728 1.924.208.659.312 1.127.312 1.404v.416l-.312.052c-.208.035-.503.087-.884.156-.381.07-.745.139-1.092.208l-2.184.312-.104-.416-.023-.112c-.075-.362-.206-.949-.393-1.76-.208-.97-.45-1.803-.728-2.496-.347-.693-.624-1.213-.832-1.56-.277-.485-.728-1.057-1.352-1.716-.624-.659-.988-.988-1.092-.988-.104 0-.433.59-.988 1.768-.624 1.11-1.179 2.08-1.664 2.912-.416.763-1.04 1.768-1.872 3.016-.788 1.126-1.462 2.069-2.021 2.829h-5.779c.063-1.235.097-3.152.103-5.75v-6.252h4.472zm-45.239 5.22h-4.368v5.824h4.368V27.04zm27.559-5.22l.001 3.556h3.952l-.001-3.557h4.472l.001 4.909-.416.624-.092.2c-.191.387-.42.684-.688.892-.312.243-.641.433-.988.572-.416.139-.901.208-1.456.208h-.832v-1.872h-4.368l-.52.52-.18.168c-.307.27-.664.49-1.068.664-.416.139-.901.208-1.456.208h-.832l-.001-7.093h4.472z" transform="translate(74 3)"/>
            <path fill="#007CDC" d="M12.064 9.32v10.865l-.003 1.636-4.573-.001V9.32h4.576zm-7.592 0v12.5H.001V9.32h4.471zm30.431 0c-.808 1.279-1.314 2.037-1.519 2.276-.208.243-.485.45-.832.624-.347.173-.52.295-.52.364 0 .07.381.104 1.144.104l1.144-.104v-.624l.104-.624h4.16V21.82h-4.16v-7.26l-7.488.104h-1.171c-4.383.006-6.766.04-7.149.104l-.728.104v6.948h-4.16V11.336h4.16v.728l.104.624 1.768.104h.227c1.099-.009 1.665-.078 1.697-.208.035-.139-.035-.485-.208-1.04s-.399-1.075-.676-1.56c-.098-.23-.22-.451-.365-.665h3.009c.47.33.941.76 1.412 1.289.555.555.936 1.04 1.144 1.456l.208.624h.832l.16-.008c.425-.04.822-.246 1.192-.616.416-.416.936-1.317 1.56-2.704l.018-.04zm-7.759 6.696v3.432h5.72v1.976h-5.72v.396h-1.976v-.396h-5.72v-1.976h5.72v-3.432h1.976zM64.376 9.32v12.5h-4.472V9.32h4.472zm-8.424 0v12.5H51.48V9.32h4.472zm17.68 8.776v3.724H69.16v-1.644h-3.744v-2.08h8.216zM84.81 9.32c-.014.37-.03.73-.05 1.08l-.104 1.248h8.528v1.976h-8.736l-.104.208-.002.048c-.006.072-.022.177-.05.316-.035.173-.07.399-.104.676-.035.277-.087.52-.156.728-.208.901-.45 1.803-.728 2.704-.347.97-.624 1.733-.832 2.288l-.416 1.04.156.052c.104.035.225.07.364.104l.11.031h-4.75c.185-.59.345-1.173.48-1.747.347-1.11.624-2.253.832-3.432.208-1.11.347-1.872.416-2.288l.104-.728H70.72v-1.976l4.576-.104h4.68l.104-.728.008-.072c.03-.272.059-.746.088-1.423z" transform="translate(74 3)"/>
            <path fill="#00A6F3" d="M4.472 4.576V5.2h1.56l.201-.001c.908-.01 1.379-.097 1.411-.259.035-.173.78-.26 2.236-.26h2.184l-.001 4.64H7.488V7.28H6.032l-1.56-.104-.001 2.144H0V4.576h4.472zM18.46 6.968c.104 0 .433.104.988.312.555.208 1.196.503 1.924.884s1.335.71 1.82.988c.084.053.168.108.253.168h-3.009c-.161-.239-.352-.468-.572-.688-.416-.416-.797-.728-1.144-.936-.07-.07-.173-.139-.312-.208l-.233-.233-.027-.027c-.035-.035-.017-.087.052-.156.07-.07.156-.104.26-.104zm15.386.302c1.564-.06 2.346-.056 2.346.01 0 .07-.416.728-1.248 1.976l-.042.066-4.932-.002.918-2.04h2.704zm19.922-1.238h.236c1.299.004 1.948.039 1.948.104 0 .063.774.097 2.32.103l.488.001c1.872 0 3.259.035 4.16.104l1.456.104V9.32h-4.472v-1h-3.952v1H51.48V6.032h2.288zm31.304-4.68v1.002c-.007.478-.076 1.773-.208 3.886 0 1.099-.018 2.126-.054 3.08l-4.634.002c.037-.868.075-2.068.112-3.602V1.352h4.784zM73.32 4.888v1.976h-8.424V4.888h8.424zM29.016 0l-.104.936-.006.23c-.03.532-.167 1.01-.41 1.434-.208.485-.485.901-.832 1.248l-.624.416 6.344.104 6.24.104v1.872H13.832V4.472l5.304-.104h5.304V2.052c.004-1.299.039-1.948.104-1.948 0-.07.728-.104 2.184-.104h2.288z" transform="translate(74 3)"/>
        </g>
        <path fill="#003D97" d="M50 9.75L38.5 0l-3.25 3.75 11.5 9.75L50 9.75zM14.75 4L11.5.25 0 9.75l3.25 3.75L14.75 4zm11.5 11.5H22.5v15l11.75 7.25 2-3-10-6V15.5zM25 5.5C12.5 5.5 2.5 15.5 2.5 28s10 22.5 22.5 22.5 22.5-10 22.5-22.5S37.5 5.5 25 5.5zm0 40c-9.75 0-17.5-7.75-17.5-17.5S15.25 10.5 25 10.5 42.5 18.25 42.5 28 34.75 45.5 25 45.5z"/>
        <path fill="#0058C5" d="M7.75 25c-.164.973-.25 1.976-.25 3 0 3.517 1.008 6.774 2.756 9.5H4.572C3.24 34.62 2.5 31.404 2.5 28c0-1.018.066-2.02.195-3zm18.5 0v3.75l10 6-1.833 2.75h-.572l-11.345-7V25h3.75zm21.055 0c.129.98.195 1.982.195 3 0 3.403-.741 6.62-2.072 9.5h-5.684c1.748-2.726 2.756-5.983 2.756-9.5 0-1.024-.086-2.027-.25-3z"/>
        <path fill="#007CDC" d="M41.363 12.5c3.167 3.345 5.31 7.672 5.942 12.5H42.25c-.923-5.467-4.334-10.028-9.051-12.5zm-24.562-.001C12.084 14.972 8.673 19.533 7.75 25H2.695c.633-4.828 2.775-9.155 5.942-12.5zM26.25 15.5V25H22.5v-9.5h3.75zm21.366-3l-.866 1-1.18-1h2.046zm-43.156 0l-1.21 1-.868-1H4.46z"/>
        <path fill="#00A6F3" d="M11.5.25L14.75 4 4.46 12.5H2.383L0 9.75 11.5.25zM25 5.5c6.471 0 12.273 2.68 16.363 7h-8.162c-2.439-1.279-5.227-2-8.201-2s-5.762.721-8.2 2H8.636c4.09-4.32 9.892-7 16.363-7zM38.5 0L50 9.75l-2.384 2.75H45.57L35.25 3.75 38.5 0z"/>
    </g>
</svg>
