<svg xmlns="http://www.w3.org/2000/svg" width="50" height="63" viewBox="0 0 50 63">
    <path fill-rule="evenodd" d="M37.776 0h-24.6c-1.152 0-2.054.9-2.054 2.05V4.9H2.054C.902 4.9 0 5.8 0 6.95v54C0 62.1.902 63 2.054 63h45.892C49.098 63 50 62.1 50 60.95v-54c0-1.15-.902-2.05-2.054-2.05H39.83V2.05C39.83.9 38.928 0 37.776 0zM15.23 6.95V4.1h20.491v6.45h-20.49v-3.6zM11.122 9v3.6c0 1.15.902 2.05 2.054 2.05h24.6c1.152 0 2.054-.9 2.054-2.05V9h6.062v49.9H4.108V9h7.014zm14.379 36.4h-14.83c-1.152 0-2.054.9-2.054 2.05s.902 2.05 2.054 2.05h14.78c1.152 0 2.054-.9 2.054-2.05s-.902-2.05-2.004-2.05zm14.78-9.9H10.67c-1.152 0-2.054.9-2.054 2.05s.902 2.05 2.054 2.05h29.61c1.152 0 2.054-.9 2.054-2.05s-.902-2.05-2.054-2.05zm0-9.95H10.67c-1.152 0-2.054.95-2.054 2.05 0 1.15.902 2.05 2.054 2.05h29.61c1.152 0 2.054-.9 2.054-2.05s-.902-2.05-2.054-2.05z"/>
</svg>
