<svg xmlns="http://www.w3.org/2000/svg" width="58" height="58" viewBox="0 0 58 58">
    <path fill-rule="evenodd" d="M55.99 13.585c-.1 0-12.666-.3-25.482-12.983C30.106.2 29.603 0 29.05 0h-.2c-.554 0-1.056.2-1.458.602C14.676 13.284 2.11 13.585 2.01 13.585c-1.105 0-2.01.902-2.01 2.055v13.235c0 .25.05.501.15.752.353.902 9.048 22.307 28.146 28.273.201.05.402.1.603.1h.202c.2 0 .402-.05.603-.1 19.098-5.966 27.793-27.371 28.145-28.273.1-.251.151-.502.151-.752V15.64c0-1.102-.905-2.005-2.01-2.055zm-2.061 14.889C52.773 31.13 44.68 48.626 29 53.839 13.319 48.626 5.227 31.131 4.071 28.424V17.495C8.293 16.944 18.395 14.638 29 4.762c10.605 9.876 20.707 12.182 24.929 12.733v10.979z"/>
</svg>
