<svg xmlns="http://www.w3.org/2000/svg" width="200" height="200" viewBox="0 0 200 200">
    <g fill="none" fill-rule="evenodd">
        <circle cx="100" cy="100" r="100" fill="#2CA600"/>
        <path fill="#FFF" d="M100 0c55.228 0 100 44.772 100 100s-44.772 100-100 100S0 155.228 0 100 44.772 0 100 0zm0 13.889c-47.558 0-86.111 38.553-86.111 86.111 0 47.558 38.553 86.111 86.111 86.111 47.558 0 86.111-38.553 86.111-86.111 0-47.558-38.553-86.111-86.111-86.111zM73.333 48.333V58.89c-4.97-.283-8.035.81-9.195 3.28-2.334 4.97-1.271 18.033-1.873 22.225-.343 2.384-1.668 6.134-2.084 8.117-.487 2.316-6.478 6.423-6.478 7.489 0 .552 4.258 4.916 6.478 9.578 1.937 4.07 1.855 8.393 2.084 10.28.554 4.575-.461 14.608 2.468 18.887 1.033 1.51 3.768 1.947 8.204 1.314l.396-.059v11.111H38.89v-.031h25.249c-5.122-1.33-8.209-2.833-9.26-4.513-2.428-3.878-2.934-8.846-3.365-12.785-.501-4.592-.702-8.042-.702-10.678 0-6.366-.78-10.827-2.34-13.385-1.68-1.704-3.098-2.744-4.252-3.12-1.153-.375-2.93-.534-5.33-.476V93.29c2.4.058 4.177-.1 5.33-.476 1.154-.376 2.571-1.416 4.253-3.12 1.56-2.558 2.339-7.02 2.339-13.385 0-2.636.201-6.086.702-10.678.43-3.94.937-8.907 3.365-12.785 1.02-1.63 3.958-3.095 8.813-4.395l.447-.118h9.195zm62.529 0l.447.118c4.855 1.3 7.793 2.765 8.813 4.395 2.428 3.878 2.934 8.846 3.365 12.785.501 4.592.702 8.042.702 10.678 0 6.366.78 10.827 2.34 13.385 1.68 1.704 3.098 2.744 4.252 3.12 1.153.375 2.93.534 5.33.476v12.833c-2.4-.058-4.177.1-5.33.476-1.154.376-2.571 1.416-4.253 3.12-1.56 2.558-2.339 7.02-2.339 13.385 0 2.636-.201 6.086-.702 10.678-.43 3.94-.937 8.907-3.365 12.785-1.051 1.68-4.138 3.184-9.26 4.513h25.25v.031h-34.445V140l.396.059c4.436.633 7.17.196 8.204-1.314 2.929-4.279 1.914-14.312 2.468-18.888.229-1.886.147-6.208 2.084-10.279 2.22-4.662 6.478-9.026 6.478-9.578 0-1.066-5.99-5.173-6.478-7.49-.416-1.982-1.741-5.732-2.084-8.116-.602-4.192.461-17.255-1.873-22.224-1.16-2.47-4.225-3.564-9.195-3.281V48.333h9.195zm-60.029 45c3.836 0 6.945 3.11 6.945 6.945 0 3.835-3.11 6.944-6.945 6.944-3.835 0-6.944-3.109-6.944-6.944 0-3.836 3.109-6.945 6.944-6.945zm24.445 0c3.835 0 6.944 3.11 6.944 6.945 0 3.835-3.109 6.944-6.944 6.944-3.836 0-6.945-3.109-6.945-6.944 0-3.836 3.11-6.945 6.945-6.945zm24.444 0c3.836 0 6.945 3.11 6.945 6.945 0 3.835-3.11 6.944-6.945 6.944-3.835 0-6.944-3.109-6.944-6.944 0-3.836 3.109-6.945 6.944-6.945z"/>
    </g>
</svg>
