<svg xmlns="http://www.w3.org/2000/svg" width="122" height="122" viewBox="0 0 122 122">
    <g fill="none" fill-rule="evenodd" transform="translate(2 2)">
        <circle cx="59" cy="59" r="59" stroke="#FFF" stroke-width="4"/>
        <circle cx="49" cy="60" r="2" fill="#FFF"/>
        <circle cx="59" cy="60" r="2" fill="#FFF"/>
        <circle cx="69" cy="60" r="2" fill="#FFF"/>
        <path stroke="#FFF" stroke-linecap="square" stroke-linejoin="round" stroke-width="4" d="M41.5 32.17h-2.725c-2.34 0-4.368 1.623-4.88 3.907-1.145 5.121-1.718 10.598-1.718 16.429 0 2.705-2.165 4.87-6.494 6.494 4.33 1.536 6.494 3.347 6.494 5.435 0 5.374.625 11.286 1.874 17.734.455 2.351 2.514 4.05 4.909 4.05h2.54M77 32h2.725c2.34 0 4.368 1.624 4.88 3.908 1.145 5.121 1.718 10.597 1.718 16.429 0 2.705 2.165 4.87 6.494 6.494-4.33 1.536-6.494 3.347-6.494 5.434 0 5.375-.625 11.287-1.874 17.735-.455 2.351-2.514 4.049-4.909 4.049H77h0"/>
    </g>
</svg>
