<svg xmlns="http://www.w3.org/2000/svg" width="120" height="113" viewBox="0 0 120 113">
    <g fill="none" fill-rule="evenodd">
        <path fill="#007CDC" d="M7.5 93.75c.011-6.191 5.063-11.239 11.25-11.25 6.191.011 11.239 5.059 11.25 11.25-.011 6.191-5.059 11.239-11.25 11.25-2.07 0-3.75 1.68-3.75 3.75 0 2.07 1.68 3.75 3.75 3.75 10.35-.007 18.742-8.4 18.75-18.75C37.492 83.4 29.1 75.007 18.75 75 8.404 75.007.008 83.4 0 93.75c0 2.07 1.68 3.75 3.75 3.75 2.074 0 3.75-1.68 3.75-3.75"/>
        <path stroke="#007CDC" stroke-linecap="round" stroke-linejoin="round" stroke-width="2" d="M101.372 15.194l-.235 63.182s12.515 1.077 14.306 12.208"/>
        <path fill="#007CDC" d="M7.5 93.75c.011-6.191 5.063-11.239 11.25-11.25 6.191.011 11.239 5.059 11.25 11.25 0 .986.401 1.954 1.099 2.651.697.698 1.665 1.099 2.651 1.099.986 0 1.954-.401 2.651-1.099.698-.697 1.099-1.665 1.099-2.651v-75c0-2.07-1.676-3.75-3.75-3.75-2.07 0-3.75 1.68-3.75 3.75v75c0 .986.401 1.954 1.099 2.651.697.698 1.665 1.099 2.651 1.099.986 0 1.954-.401 2.651-1.099.698-.697 1.099-1.665 1.099-2.651C37.492 83.4 29.1 75.007 18.75 75 8.404 75.007.008 83.4 0 93.75c0 2.07 1.68 3.75 3.75 3.75 2.074 0 3.75-1.68 3.75-3.75"/>
        <path fill="#0058C5" d="M112.5 93.75c-.011 6.161-5.085 11.239-11.25 11.25h-82.5c-6.161-.011-11.239-5.089-11.25-11.25v-75c.011-6.165 5.089-11.239 11.25-11.25 6.165.011 11.239 5.085 11.25 11.25 0 .986.401 1.954 1.099 2.651.697.698 1.665 1.099 2.651 1.099h67.5c.986 0 1.954-.401 2.651-1.099.698-.697 1.099-1.665 1.099-2.651V8.205c4.335 1.568 7.493 5.7 7.5 10.545v75zM101.25 0c-.986 0-1.954.401-2.651 1.099C97.9 1.796 97.5 2.764 97.5 3.75V15H37.117C35.367 6.454 27.803.011 18.75 0 8.415.015.015 8.411 0 18.75v75c.015 10.339 8.415 18.735 18.75 18.75h82.5c10.339-.015 18.735-8.411 18.75-18.75v-75C119.985 8.411 111.589.015 101.25 0z"/>
    </g>
</svg>
