<svg xmlns="http://www.w3.org/2000/svg" width="33" height="45" viewBox="0 0 33 45">
    <path fill="#003D97" fill-rule="evenodd" d="M16.364 6.136V0L8.182 8.182l8.182 8.182v-6.137c6.75 0 12.272 5.523 12.272 12.273 0 2.045-.613 4.09-1.431 5.727l3.068 3.068c1.432-2.659 2.454-5.522 2.454-8.795 0-9-7.363-16.364-16.363-16.364zm0 28.637C9.614 34.773 4.09 29.25 4.09 22.5c0-2.045.614-4.09 1.432-5.727l-3.068-3.068C1.023 16.364 0 19.227 0 22.5c0 9 7.364 16.364 16.364 16.364V45l8.181-8.182-8.181-8.182v6.137z"/>
</svg>
